# xmcd
#
# Track frame offsets:
#	150
#	15626
#	34436
#	45328
#	63504
#	85968
#	104066
#	117725
#	135332
#	151983
#	175115
#	189243
#	208383
#	227073
#
# Disc length: 3257 seconds
#
# Revision: 1
# Processed by: cddbd v1.5.2PL0 Copyright (c) Steve Scherf et al.
# Submitted via: audiograbber 1.83.01
#
DISCID=c10cb70e
DTITLE=Bluedays - Bluedays 20
DYEAR=2018
DGENRE=Blues
TTITLE0=Para toda esa gente
TTITLE1=Como al cielo azul
TTITLE2=Mirar atras
TTITLE3=La mula
TTITLE4=Bajando para Cadiz
TTITLE5=1500 blues
TTITLE6=Catalina
TTITLE7=En la flor de la vida
TTITLE8=Fe ciega
TTITLE9=Iceman
TTITLE10=Dame mas calor
TTITLE11=Gigolo
TTITLE12=Angelina
TTITLE13=Quiero bailar
EXTD=
EXTT0=
EXTT1=
EXTT2=
EXTT3=
EXTT4=
EXTT5=
EXTT6=
EXTT7=
EXTT8=
EXTT9=
EXTT10=
EXTT11=
EXTT12=
EXTT13=
PLAYORDER=
